HIERARCHY
ROOT Hips
{
	OFFSET 0.000000 0.000000 0.000000
	CHANNELS 6 Xposition Yposition Zposition Xrotation Yrotation Zrotation
	JOINT Chest
	{
		OFFSET 0.000000 0.009282 11.569106
		CHANNELS 3 Xrotation Yrotation Zrotation
		JOINT Chest2
		{
			OFFSET 0.000000 -0.016863 9.269641
			CHANNELS 3 Xrotation Yrotation Zrotation
			JOINT Chest3
			{
				OFFSET 0.000000 0.000000 8.374491
				CHANNELS 3 Xrotation Yrotation Zrotation
				JOINT Chest4
				{
					OFFSET 0.000000 0.000000 8.374493
					CHANNELS 3 Xrotation Yrotation Zrotation
					JOINT Neck
					{
						OFFSET 0.000000 -0.000001 12.152554
						CHANNELS 3 Xrotation Yrotation Zrotation
						JOINT Head
						{
							OFFSET 0.000000 -0.040100 7.802319
							CHANNELS 3 Xrotation Yrotation Zrotation
							End Site
							{
								OFFSET 0.000000 -0.020946 14.853096
							}
						}
					}
					JOINT RightCollar
					{
						OFFSET -2.894404 0.000000 6.791374
						CHANNELS 3 Xrotation Yrotation Zrotation
						JOINT RightShoulder
						{
							OFFSET -13.574684 0.000000 0.000000
							CHANNELS 3 Xrotation Yrotation Zrotation
							JOINT RightElbow
							{
								OFFSET -23.923903 0.000000 0.000000
								CHANNELS 3 Xrotation Yrotation Zrotation
								JOINT RightWrist
								{
									OFFSET -19.846718 -0.012765 0.000000
									CHANNELS 3 Xrotation Yrotation Zrotation
									End Site
									{
										OFFSET -14.973145 0.000000 0.000000
									}
								}
							}
						}
					}
					JOINT LeftCollar
					{
						OFFSET 2.894404 0.000000 6.791374
						CHANNELS 3 Xrotation Yrotation Zrotation
						JOINT LeftShoulder
						{
							OFFSET 13.574684 0.000000 0.000000
							CHANNELS 3 Xrotation Yrotation Zrotation
							JOINT LeftElbow
							{
								OFFSET 23.923903 0.000000 0.000000
								CHANNELS 3 Xrotation Yrotation Zrotation
								JOINT LeftWrist
								{
									OFFSET 19.846718 -0.012765 0.000000
									CHANNELS 3 Xrotation Yrotation Zrotation
									End Site
									{
										OFFSET 14.973145 0.000000 0.000000
									}
								}
							}
						}
					}
				}
			}
		}
	}
	JOINT RightHip
	{
		OFFSET -9.469263 -0.004642 0.045487
		CHANNELS 3 Xrotation Yrotation Zrotation
		JOINT RightKnee
		{
			OFFSET 0.000000 -0.002666 -40.478676
			CHANNELS 3 Xrotation Yrotation Zrotation
			JOINT RightAnkle
			{
				OFFSET 0.000000 -0.049110 -35.224068
				CHANNELS 3 Xrotation Yrotation Zrotation
				JOINT RightToe
				{
					OFFSET 0.000000 -12.539530 -6.151390
					CHANNELS 3 Xrotation Yrotation Zrotation
					End Site
					{
						OFFSET 0.000000 -5.044995 -1.291870
					}
				}
			}
		}
	}
	JOINT LeftHip
	{
		OFFSET 9.469263 -0.004642 0.045487
		CHANNELS 3 Xrotation Yrotation Zrotation
		JOINT LeftKnee
		{
			OFFSET 0.000000 -0.002666 -40.478676
			CHANNELS 3 Xrotation Yrotation Zrotation
			JOINT LeftAnkle
			{
				OFFSET 0.000000 -0.049110 -35.224068
				CHANNELS 3 Xrotation Yrotation Zrotation
				JOINT LeftToe
				{
					OFFSET 0.000000 -12.539530 -6.151390
					CHANNELS 3 Xrotation Yrotation Zrotation
					End Site
					{
						OFFSET 0.000000 -5.044995 -1.291870
					}
				}
			}
		}
	}
}
MOTION
Frames: 9
Frame Time: 0.016667
-6.182822 13.097884 83.172485 4.295484 10.684898 -115.661112 7.236980 -0.725424 -0.335977 3.157977 -0.322126 -0.229371 3.157976 -0.322126 -0.229373 2.368596 -0.240417 -0.173700 17.085991 0.019309 -0.434762 -4.453545 0.185990 -0.786020 -4.604905 -5.418795 -4.387787 32.756740 -38.957032 14.814952 58.740856 4.229900 60.200242 -54.036734 31.221618 91.956059 -7.840414 9.945340 -3.949305 26.663711 42.775849 -3.187600 61.312020 11.095415 -55.637355 -37.878122 -31.012392 -91.071502 9.825231 -0.565225 -5.091660 2.125243 -0.802679 -6.726933 -1.610442 -0.814727 -0.283882 0.205803 0.189172 0.071059 9.924483 3.592700 -2.335311 3.907301 -2.745094 5.336167 -1.935593 1.839564 10.591458 0.124959 0.319469 -0.186908 
-6.182822 13.097884 83.172485 4.295484 10.684898 -115.661112 7.236980 -0.725424 -0.335977 3.157977 -0.322126 -0.229371 3.157976 -0.322126 -0.229373 2.368596 -0.240417 -0.173700 17.085991 0.019309 -0.434762 -4.453545 0.185990 -0.786020 -4.604905 -5.418795 -4.387787 32.756740 -38.957032 14.814952 58.740856 4.229900 60.200242 -54.036734 31.221618 91.956059 -7.840414 9.945340 -3.949305 26.663711 42.775849 -3.187600 61.312020 11.095415 -55.637355 -37.878122 -31.012392 -91.071502 9.825231 -0.565225 -5.091660 2.125243 -0.802679 -6.726933 -1.610442 -0.814727 -0.283882 0.205803 0.189172 0.071059 9.924483 3.592700 -2.335311 3.907301 -2.745094 5.336167 -1.935593 1.839564 10.591458 0.124959 0.319469 -0.186908 
-6.172297 13.139010 83.170113 4.297684 10.676375 -115.687572 7.172465 -0.730849 -0.360736 3.129904 -0.320267 -0.239587 3.129903 -0.320267 -0.239586 2.347546 -0.238980 -0.181343 17.089955 0.037173 -0.384560 -4.446368 0.201136 -0.688277 -4.577704 -5.398360 -4.378489 32.728733 -38.984838 14.790382 58.824909 4.225952 60.164097 -54.001221 31.222864 91.942201 -7.815109 9.950555 -3.938955 26.682494 42.768999 -3.171672 61.373443 11.061754 -55.672817 -37.876363 -31.047786 -91.028096 9.772010 -0.579720 -5.079482 2.236605 -0.825202 -6.749617 -1.696455 -0.858472 -0.275895 0.199415 0.204511 0.071112 9.899177 3.559855 -2.439574 3.971662 -2.722422 5.365217 -1.975676 1.795750 10.714098 0.123547 0.323206 -0.180035 
-6.158413 13.188282 83.167862 4.298748 10.658370 -115.701383 7.112245 -0.732812 -0.388553 3.104009 -0.319848 -0.250993 3.104008 -0.319849 -0.250987 2.328132 -0.238620 -0.189872 17.091015 0.052963 -0.331807 -4.444588 0.211633 -0.586632 -4.578630 -5.379387 -4.379576 32.691082 -39.019621 14.741242 58.918742 4.233645 60.131940 -53.975222 31.222960 91.930822 -7.824200 9.950946 -3.923730 26.715289 42.768838 -3.155868 61.444430 11.048005 -55.699284 -37.873542 -31.076555 -90.999006 9.695665 -0.609044 -5.058878 2.378753 -0.842503 -6.764886 -1.792063 -0.896025 -0.293414 0.187151 0.214518 0.070803 9.860237 3.515610 -2.576449 4.045699 -2.694874 5.409893 -2.027900 1.759336 10.835952 0.128334 0.321502 -0.178873 
-6.141923 13.250800 83.165352 4.300358 10.632203 -115.713049 7.054195 -0.741622 -0.418577 3.079172 -0.322945 -0.262549 3.079174 -0.322944 -0.262548 2.309512 -0.240893 -0.198544 17.090030 0.074784 -0.279445 -4.446594 0.233265 -0.483585 -4.595598 -5.357381 -4.365465 32.624419 -39.065083 14.627559 59.015034 4.248591 60.107543 -53.933154 31.219972 91.914764 -7.815523 9.967142 -3.904731 26.713263 42.770180 -3.120293 61.508353 11.050833 -55.717517 -37.845187 -31.108998 -90.973052 9.610605 -0.659086 -5.039638 2.528237 -0.843341 -6.768622 -1.887059 -0.923273 -0.313327 0.171414 0.213759 0.071079 9.820080 3.448087 -2.678911 4.113070 -2.656552 5.419401 -2.090580 1.740253 10.947514 0.137750 0.309243 -0.175943 
-6.124621 13.324847 83.162880 4.296915 10.597856 -115.732091 6.998398 -0.755807 -0.450632 3.055041 -0.329700 -0.275817 3.055041 -0.329700 -0.275818 2.291424 -0.245904 -0.208515 17.084272 0.106924 -0.225319 -4.457429 0.273107 -0.373746 -4.559802 -5.320339 -4.318163 32.494468 -39.118484 14.488616 59.103048 4.268422 60.084942 -53.882246 31.219207 91.897060 -7.808604 10.001969 -3.859862 26.703039 42.785166 -3.062164 61.564593 11.035197 -55.742830 -37.813228 -31.164111 -90.933983 9.517816 -0.711730 -5.019123 2.678376 -0.853320 -6.794092 -1.982246 -0.928004 -0.305009 0.155948 0.205299 0.071566 9.778772 3.366551 -2.698096 4.171660 -2.610539 5.417105 -2.163377 1.738333 10.959578 0.150230 0.289012 -0.176296 
-6.107633 13.413404 83.161331 4.285881 10.561527 -115.753893 6.954879 -0.760618 -0.470661 3.036656 -0.329839 -0.282637 3.036656 -0.329839 -0.282633 2.277639 -0.245982 -0.213621 17.066098 0.131309 -0.178664 -4.491359 0.301431 -0.280187 -4.564206 -5.303677 -4.288456 32.406031 -39.172723 14.359715 59.168433 4.285360 60.051132 -53.834581 31.216929 91.883632 -7.826943 10.017358 -3.833676 26.690784 42.813104 -2.985678 61.603259 11.015344 -55.769789 -37.739684 -31.190216 -90.863174 9.430153 -0.762605 -5.003246 2.820326 -0.871564 -6.838400 -2.080437 -0.925263 -0.266762 0.143062 0.201560 0.069021 9.732611 3.274433 -2.628026 4.230028 -2.551387 5.421915 -2.241696 1.753213 10.919786 0.158984 0.259887 -0.169378 
-6.089909 13.509214 83.161461 4.274499 10.533485 -115.771652 6.915302 -0.754802 -0.489738 3.025106 -0.326972 -0.284644 3.025107 -0.326972 -0.284641 2.268978 -0.243827 -0.215102 17.043059 0.145439 -0.140697 -4.534251 0.314049 -0.205989 -4.607758 -5.295720 -4.284651 32.378771 -39.224154 14.254579 59.218942 4.295298 60.011326 -53.789150 31.213193 91.874432 -7.839578 10.020890 -3.823428 26.635487 42.843475 -2.891060 61.646788 11.007797 -55.787455 -37.628595 -31.212865 -90.803984 9.348955 -0.811066 -5.006757 2.968056 -0.897671 -6.857289 -2.180356 -0.919468 -0.240926 0.127638 0.203697 0.065962 9.684893 3.169380 -2.474493 4.311788 -2.487648 5.425254 -2.333891 1.790195 10.758099 0.160319 0.227400 -0.166464 
-6.070411 13.615744 83.162498 4.263376 10.498848 -115.785121 6.878385 -0.746580 -0.503573 3.017374 -0.321486 -0.283065 3.017377 -0.321486 -0.283059 2.263176 -0.239724 -0.213883 17.017053 0.149114 -0.113838 -4.582639 0.311450 -0.155704 -4.612469 -5.284810 -4.292033 32.308857 -39.291640 14.169080 59.274308 4.295432 59.968596 -53.738600 31.210679 91.857875 -7.840506 10.015785 -3.811963 26.573261 42.851832 -2.822460 61.702133 11.004143 -55.821043 -37.543446 -31.265068 -90.734671 9.261113 -0.863421 -5.025915 3.125664 -0.933296 -6.831209 -2.283483 -0.902784 -0.237173 0.106755 0.205533 0.060121 9.618130 3.044847 -2.246863 4.413906 -2.406427 5.371116 -2.440252 1.837652 10.591074 0.157956 0.187152 -0.151992 
